<svg xmlns="http://www.w3.org/2000/svg" width="41.05" height="67.05" viewBox="0 0 41.05 67.05"><title>best-value</title><path d="M512.43,420.51l-18.77,9.37v-67h37.53v67Z" transform="translate(-490.14 -362.84)" fill="#f9615c"/><g style="isolation:isolate"><g style="isolation:isolate"><path d="M500.82,382.52h3.51a1.73,1.73,0,0,1,1.92,1.7,1.48,1.48,0,0,1-1.15,1.53,1.62,1.62,0,0,1,1.28,1.64,1.76,1.76,0,0,1-1.94,1.8h-3.62Zm3.2,2.68a.74.74,0,1,0,0-1.47h-1.78v1.47Zm.05,2.78a.77.77,0,0,0,.86-.79.78.78,0,0,0-.86-.78h-1.83V388Z" transform="translate(-490.14 -362.84)" fill="#fff"/><path d="M507.45,382.52h4.72v1.22h-3.3v1.45h3.23v1.22h-3.23V388h3.3v1.23h-4.72Z" transform="translate(-490.14 -362.84)" fill="#fff"/><path d="M513.6,387.17a2.92,2.92,0,0,0,2.12.9c.78,0,1.16-.37,1.16-.75s-.58-.67-1.35-.85c-1.09-.25-2.49-.55-2.49-2,0-1.11,1-2,2.53-2a3.71,3.71,0,0,1,2.6.93l-.79,1a2.85,2.85,0,0,0-1.91-.73c-.64,0-1,.28-1,.68s.56.59,1.33.77c1.1.25,2.5.58,2.5,2.06,0,1.22-.87,2.14-2.67,2.14a3.8,3.8,0,0,1-2.82-1.06Z" transform="translate(-490.14 -362.84)" fill="#fff"/><path d="M520.75,383.77h-2v-1.25h5.32v1.25h-1.94v5.42h-1.43Z" transform="translate(-490.14 -362.84)" fill="#fff"/></g></g><g style="isolation:isolate"><path d="M497.11,391.52h1.62l1.85,5.13,1.84-5.13H504l-2.57,6.67h-1.78Z" transform="translate(-490.14 -362.84)" fill="#fff"/><path d="M508.44,397h-3l-.42,1.15h-1.56l2.58-6.67h1.78l2.57,6.67h-1.55Zm-2.6-1.23h2.21l-1.1-3.06Z" transform="translate(-490.14 -362.84)" fill="#fff"/><path d="M511,391.52h1.42v5.42h2.82v1.25H511Z" transform="translate(-490.14 -362.84)" fill="#fff"/><path d="M516,391.52h1.44v4a1.54,1.54,0,1,0,3.08,0v-4H522v4c0,1.66-1,2.79-3,2.79s-3-1.14-3-2.78Z" transform="translate(-490.14 -362.84)" fill="#fff"/><path d="M523.3,391.52H528v1.22h-3.3v1.45H528v1.22h-3.23V397H528v1.23H523.3Z" transform="translate(-490.14 -362.84)" fill="#fff"/></g><path d="M493.66,362.84l-3.52,3.57h3.52Z" transform="translate(-490.14 -362.84)" fill="#c44844"/></svg>