<svg xmlns="http://www.w3.org/2000/svg" xmlns:xlink="http://www.w3.org/1999/xlink" viewBox="0 0 96.88 92.19"><defs><linearGradient id="linear-gradient" x1="14.6" y1="88.18" x2="82.27" y2="20.51" gradientUnits="userSpaceOnUse"><stop offset="0.07" stop-color="#d4af37"/><stop offset="0.16" stop-color="#d7b23c"/><stop offset="0.28" stop-color="#debb4b"/><stop offset="0.41" stop-color="#eaca64"/><stop offset="0.51" stop-color="#f6d97c"/><stop offset="0.58" stop-color="#f0d270"/><stop offset="0.81" stop-color="#dcb947"/><stop offset="0.94" stop-color="#d4af37"/></linearGradient></defs><title>Asset 1</title><g id="Layer_2" data-name="Layer 2"><g id="Layer_1-2" data-name="Layer 1"><path d="M48.93.3,63.47,29.78a.57.57,0,0,0,.41.3L96.41,34.8a.55.55,0,0,1,.3.93L73.18,58.67a.56.56,0,0,0-.16.49l5.55,32.39a.54.54,0,0,1-.79.57L48.69,76.83a.57.57,0,0,0-.51,0L19.09,92.12a.54.54,0,0,1-.79-.57l5.56-32.39a.56.56,0,0,0-.16-.49L.17,35.73a.54.54,0,0,1,.3-.93L33,30.08a.56.56,0,0,0,.41-.3L48,.3A.55.55,0,0,1,48.93.3Z" fill="url(#linear-gradient)"/></g></g></svg>